<svg width="16" height="16" viewBox="0 0 16 16" fill="none" xmlns="http://www.w3.org/2000/svg">
<g clip-path="url(#clip0_9654_14588)">
<path d="M1.33398 4.66732L4.27398 1.72732C4.39802 1.60254 4.54553 1.50354 4.70801 1.43604C4.87048 1.36853 5.04471 1.33385 5.22065 1.33398H10.7807C10.9566 1.33385 11.1308 1.36853 11.2933 1.43604C11.4558 1.50354 11.6033 1.60254 11.7273 1.72732L14.6673 4.66732M1.33398 4.66732H14.6673M1.33398 4.66732V6.66732C1.33398 7.02094 1.47446 7.36008 1.72451 7.61013C1.97456 7.86018 2.3137 8.00065 2.66732 8.00065M14.6673 4.66732V6.66732C14.6673 7.02094 14.5268 7.36008 14.2768 7.61013C14.0267 7.86018 13.6876 8.00065 13.334 8.00065M2.66732 8.00065V13.334C2.66732 13.6876 2.80779 14.0267 3.05784 14.2768C3.30789 14.5268 3.64703 14.6673 4.00065 14.6673H12.0007C12.3543 14.6673 12.6934 14.5268 12.9435 14.2768C13.1935 14.0267 13.334 13.6876 13.334 13.334V8.00065M2.66732 8.00065C3.05683 7.97921 3.42883 7.83182 3.72732 7.58065C3.80686 7.52317 3.90251 7.49223 4.00065 7.49223C4.09879 7.49223 4.19444 7.52317 4.27398 7.58065C4.57247 7.83182 4.94447 7.97921 5.33398 8.00065C5.72349 7.97921 6.0955 7.83182 6.39398 7.58065C6.47353 7.52317 6.56917 7.49223 6.66732 7.49223C6.76546 7.49223 6.8611 7.52317 6.94065 7.58065C7.23914 7.83182 7.61114 7.97921 8.00065 8.00065C8.39016 7.97921 8.76216 7.83182 9.06065 7.58065C9.1402 7.52317 9.23584 7.49223 9.33398 7.49223C9.43213 7.49223 9.52777 7.52317 9.60732 7.58065C9.9058 7.83182 10.2778 7.97921 10.6673 8.00065C11.0568 7.97921 11.4288 7.83182 11.7273 7.58065C11.8069 7.52317 11.9025 7.49223 12.0007 7.49223C12.0988 7.49223 12.1944 7.52317 12.274 7.58065C12.5725 7.83182 12.9445 7.97921 13.334 8.00065M10.0007 14.6673V12.0007C10.0007 11.647 9.86017 11.3079 9.61013 11.0578C9.36008 10.8078 9.02094 10.6673 8.66732 10.6673H7.33398C6.98036 10.6673 6.64122 10.8078 6.39118 11.0578C6.14113 11.3079 6.00065 11.647 6.00065 12.0007V14.6673" stroke="#00A430" stroke-width="1.3" stroke-linecap="round" stroke-linejoin="round"/>
</g>
<defs>
<clipPath id="clip0_9654_14588">
<rect width="16" height="16" fill="white"/>
</clipPath>
</defs>
</svg>
