<svg width="88" height="30" viewBox="0 0 88 30" fill="none" xmlns="http://www.w3.org/2000/svg">
<rect x="0.5" y="0.5" width="87" height="29" rx="3.5" stroke="#BDBDC1" stroke-dasharray="2 2"/>
<path d="M10.28 20L13.752 9.92H15.117L18.589 20H17.518L14.221 10.494H14.627L11.351 20H10.28ZM11.827 17.557V16.591H17.035V17.557H11.827ZM22.786 20.21C22.0814 20.21 21.4794 20.035 20.98 19.685C20.4807 19.3303 20.098 18.852 19.832 18.25C19.566 17.648 19.433 16.969 19.433 16.213C19.433 15.4617 19.5637 14.785 19.825 14.183C20.091 13.581 20.4714 13.105 20.966 12.755C21.4607 12.405 22.0534 12.23 22.744 12.23C23.4534 12.23 24.0507 12.4027 24.536 12.748C25.0214 13.0933 25.3877 13.567 25.635 14.169C25.887 14.7663 26.013 15.4477 26.013 16.213C26.013 16.9643 25.8894 17.6433 25.642 18.25C25.3947 18.852 25.0307 19.3303 24.55 19.685C24.0694 20.035 23.4814 20.21 22.786 20.21ZM22.891 19.251C23.4277 19.251 23.871 19.1203 24.221 18.859C24.571 18.5977 24.8324 18.2383 25.005 17.781C25.1777 17.319 25.264 16.7963 25.264 16.213C25.264 15.6203 25.1777 15.0977 25.005 14.645C24.8324 14.1877 24.571 13.8307 24.221 13.574C23.8757 13.3173 23.4394 13.189 22.912 13.189C22.3707 13.189 21.9227 13.322 21.568 13.588C21.2134 13.854 20.9497 14.2157 20.777 14.673C20.609 15.1303 20.525 15.6437 20.525 16.213C20.525 16.787 20.6114 17.305 20.784 17.767C20.9614 18.2243 21.225 18.586 21.575 18.852C21.925 19.118 22.3637 19.251 22.891 19.251ZM25.264 20V14.309H25.152V9.92H26.188V20H25.264ZM31.0849 20.21C30.3802 20.21 29.7782 20.035 29.2789 19.685C28.7795 19.3303 28.3969 18.852 28.1309 18.25C27.8649 17.648 27.7319 16.969 27.7319 16.213C27.7319 15.4617 27.8625 14.785 28.1239 14.183C28.3899 13.581 28.7702 13.105 29.2649 12.755C29.7595 12.405 30.3522 12.23 31.0429 12.23C31.7522 12.23 32.3495 12.4027 32.8349 12.748C33.3202 13.0933 33.6865 13.567 33.9339 14.169C34.1859 14.7663 34.3119 15.4477 34.3119 16.213C34.3119 16.9643 34.1882 17.6433 33.9409 18.25C33.6935 18.852 33.3295 19.3303 32.8489 19.685C32.3682 20.035 31.7802 20.21 31.0849 20.21ZM31.1899 19.251C31.7265 19.251 32.1699 19.1203 32.5199 18.859C32.8699 18.5977 33.1312 18.2383 33.3039 17.781C33.4765 17.319 33.5629 16.7963 33.5629 16.213C33.5629 15.6203 33.4765 15.0977 33.3039 14.645C33.1312 14.1877 32.8699 13.8307 32.5199 13.574C32.1745 13.3173 31.7382 13.189 31.2109 13.189C30.6695 13.189 30.2215 13.322 29.8669 13.588C29.5122 13.854 29.2485 14.2157 29.0759 14.673C28.9079 15.1303 28.8239 15.6437 28.8239 16.213C28.8239 16.787 28.9102 17.305 29.0829 17.767C29.2602 18.2243 29.5239 18.586 29.8739 18.852C30.2239 19.118 30.6625 19.251 31.1899 19.251ZM33.5629 20V14.309H33.4509V9.92H34.4869V20H33.5629ZM39.3934 20V9.92H40.4224V20H39.3934ZM51.537 20L51.544 15.037C51.544 14.4537 51.3807 13.9963 51.054 13.665C50.732 13.329 50.3213 13.161 49.822 13.161C49.5373 13.161 49.2597 13.2263 48.989 13.357C48.7183 13.4877 48.4943 13.6977 48.317 13.987C48.1443 14.2763 48.058 14.6543 48.058 15.121L47.449 14.946C47.435 14.4047 47.54 13.931 47.764 13.525C47.9927 13.119 48.3053 12.804 48.702 12.58C49.1033 12.3513 49.556 12.237 50.06 12.237C50.8207 12.237 51.4297 12.4727 51.887 12.944C52.3443 13.4107 52.573 14.043 52.573 14.841L52.566 20H51.537ZM42.514 20V12.44H43.438V14.302H43.55V20H42.514ZM47.036 20L47.043 15.107C47.043 14.505 46.882 14.0313 46.56 13.686C46.2427 13.336 45.8227 13.161 45.3 13.161C44.7773 13.161 44.355 13.3407 44.033 13.7C43.711 14.0547 43.55 14.5283 43.55 15.121L42.934 14.785C42.934 14.2997 43.0483 13.8657 43.277 13.483C43.5057 13.0957 43.8183 12.7923 44.215 12.573C44.6117 12.349 45.062 12.237 45.566 12.237C46.0467 12.237 46.4737 12.3397 46.847 12.545C47.225 12.7503 47.5213 13.049 47.736 13.441C47.9507 13.833 48.058 14.309 48.058 14.869L48.051 20H47.036ZM56.5512 20.21C55.9819 20.21 55.5035 20.1073 55.1162 19.902C54.7335 19.6967 54.4465 19.4237 54.2552 19.083C54.0639 18.7423 53.9682 18.3713 53.9682 17.97C53.9682 17.5593 54.0499 17.2093 54.2132 16.92C54.3812 16.626 54.6075 16.3857 54.8922 16.199C55.1815 16.0123 55.5152 15.87 55.8932 15.772C56.2759 15.6787 56.6982 15.597 57.1602 15.527C57.6269 15.4523 58.0819 15.3893 58.5252 15.338C58.9732 15.282 59.3652 15.2283 59.7012 15.177L59.3372 15.401C59.3512 14.6543 59.2065 14.1013 58.9032 13.742C58.5999 13.3827 58.0725 13.203 57.3212 13.203C56.8032 13.203 56.3645 13.3197 56.0052 13.553C55.6505 13.7863 55.4009 14.155 55.2562 14.659L54.2552 14.365C54.4279 13.6883 54.7755 13.1633 55.2982 12.79C55.8209 12.4167 56.4999 12.23 57.3352 12.23C58.0259 12.23 58.6115 12.3607 59.0922 12.622C59.5775 12.8787 59.9205 13.252 60.1212 13.742C60.2145 13.9613 60.2752 14.2063 60.3032 14.477C60.3312 14.7477 60.3452 15.023 60.3452 15.303V20H59.4282V18.103L59.6942 18.215C59.4375 18.8637 59.0385 19.3583 58.4972 19.699C57.9559 20.0397 57.3072 20.21 56.5512 20.21ZM56.6702 19.321C57.1509 19.321 57.5709 19.2347 57.9302 19.062C58.2895 18.8893 58.5789 18.6537 58.7982 18.355C59.0175 18.0517 59.1599 17.711 59.2252 17.333C59.2812 17.0903 59.3115 16.8243 59.3162 16.535C59.3209 16.241 59.3232 16.0217 59.3232 15.877L59.7152 16.08C59.3652 16.1267 58.9849 16.1733 58.5742 16.22C58.1682 16.2667 57.7669 16.3203 57.3702 16.381C56.9782 16.4417 56.6235 16.514 56.3062 16.598C56.0915 16.6587 55.8839 16.745 55.6832 16.857C55.4825 16.9643 55.3169 17.109 55.1862 17.291C55.0602 17.473 54.9972 17.6993 54.9972 17.97C54.9972 18.1893 55.0509 18.4017 55.1582 18.607C55.2702 18.8123 55.4475 18.9827 55.6902 19.118C55.9375 19.2533 56.2642 19.321 56.6702 19.321ZM65.1705 23.57C64.7832 23.57 64.4005 23.5117 64.0225 23.395C63.6492 23.283 63.3038 23.1033 62.9865 22.856C62.6692 22.6133 62.4032 22.296 62.1885 21.904L63.1195 21.386C63.3295 21.806 63.6235 22.107 64.0015 22.289C64.3842 22.4757 64.7738 22.569 65.1705 22.569C65.7165 22.569 66.1575 22.4663 66.4935 22.261C66.8342 22.0603 67.0815 21.7617 67.2355 21.365C67.3895 20.9683 67.4642 20.4737 67.4595 19.881V17.865H67.5785V12.44H68.4955V19.895C68.4955 20.1097 68.4885 20.315 68.4745 20.511C68.4652 20.7117 68.4442 20.9077 68.4115 21.099C68.3228 21.6637 68.1385 22.128 67.8585 22.492C67.5832 22.856 67.2192 23.1267 66.7665 23.304C66.3185 23.4813 65.7865 23.57 65.1705 23.57ZM65.1005 20.21C64.3958 20.21 63.7938 20.035 63.2945 19.685C62.7952 19.3303 62.4125 18.852 62.1465 18.25C61.8805 17.648 61.7475 16.969 61.7475 16.213C61.7475 15.4617 61.8782 14.785 62.1395 14.183C62.4055 13.581 62.7858 13.105 63.2805 12.755C63.7752 12.405 64.3678 12.23 65.0585 12.23C65.7678 12.23 66.3652 12.4027 66.8505 12.748C67.3358 13.0933 67.7022 13.567 67.9495 14.169C68.2015 14.7663 68.3275 15.4477 68.3275 16.213C68.3275 16.9643 68.2038 17.6433 67.9565 18.25C67.7092 18.852 67.3452 19.3303 66.8645 19.685C66.3838 20.035 65.7958 20.21 65.1005 20.21ZM65.2055 19.251C65.7422 19.251 66.1855 19.1203 66.5355 18.859C66.8855 18.5977 67.1468 18.2383 67.3195 17.781C67.4922 17.319 67.5785 16.7963 67.5785 16.213C67.5785 15.6203 67.4922 15.0977 67.3195 14.645C67.1468 14.1877 66.8855 13.8307 66.5355 13.574C66.1902 13.3173 65.7538 13.189 65.2265 13.189C64.6852 13.189 64.2372 13.322 63.8825 13.588C63.5278 13.854 63.2642 14.2157 63.0915 14.673C62.9235 15.1303 62.8395 15.6437 62.8395 16.213C62.8395 16.787 62.9258 17.305 63.0985 17.767C63.2758 18.2243 63.5395 18.586 63.8895 18.852C64.2395 19.118 64.6782 19.251 65.2055 19.251ZM73.6517 20.21C72.9143 20.21 72.275 20.0467 71.7337 19.72C71.197 19.3933 70.7793 18.9337 70.4807 18.341C70.182 17.7483 70.0327 17.053 70.0327 16.255C70.0327 15.429 70.1797 14.715 70.4737 14.113C70.7677 13.511 71.1807 13.0467 71.7127 12.72C72.2493 12.3933 72.8817 12.23 73.6097 12.23C74.3563 12.23 74.9933 12.4027 75.5207 12.748C76.048 13.0887 76.447 13.5787 76.7177 14.218C76.9883 14.8573 77.112 15.6203 77.0887 16.507H76.0387V16.143C76.02 15.163 75.8077 14.4233 75.4017 13.924C75.0003 13.4247 74.4123 13.175 73.6377 13.175C72.8257 13.175 72.2027 13.4387 71.7687 13.966C71.3393 14.4933 71.1247 15.2447 71.1247 16.22C71.1247 17.172 71.3393 17.9117 71.7687 18.439C72.2027 18.9617 72.8163 19.223 73.6097 19.223C74.151 19.223 74.6223 19.0993 75.0237 18.852C75.4297 18.6 75.7493 18.2383 75.9827 17.767L76.9417 18.138C76.643 18.796 76.202 19.307 75.6187 19.671C75.04 20.0303 74.3843 20.21 73.6517 20.21ZM70.7607 16.507V15.646H76.5357V16.507H70.7607Z" fill="white"/>
</svg>
