<svg width="14" height="16" viewBox="0 0 14 16" fill="none" xmlns="http://www.w3.org/2000/svg">
<path d="M3.66667 6.66732V4.66732C3.66667 3.78326 4.01786 2.93542 4.64298 2.3103C5.2681 1.68517 6.11595 1.33398 7 1.33398C7.88406 1.33398 8.7319 1.68517 9.35702 2.3103C9.98214 2.93542 10.3333 3.78326 10.3333 4.66732V6.66732M7.66667 10.6673C7.66667 11.0355 7.36819 11.334 7 11.334C6.63181 11.334 6.33333 11.0355 6.33333 10.6673C6.33333 10.2991 6.63181 10.0007 7 10.0007C7.36819 10.0007 7.66667 10.2991 7.66667 10.6673ZM2.33333 6.66732H11.6667C12.403 6.66732 13 7.26427 13 8.00065V13.334C13 14.0704 12.403 14.6673 11.6667 14.6673H2.33333C1.59695 14.6673 1 14.0704 1 13.334V8.00065C1 7.26427 1.59695 6.66732 2.33333 6.66732Z" stroke="#00A430" stroke-width="1.3" stroke-linecap="round" stroke-linejoin="round"/>
</svg>
