<svg width="24" height="22" viewBox="0 0 24 22" fill="none" xmlns="http://www.w3.org/2000/svg">
<path d="M19.7419 3.66602H3.94702C2.85661 3.66602 1.97266 4.48683 1.97266 5.49935V16.4994C1.97266 17.5119 2.85661 18.3327 3.94702 18.3327H19.7419C20.8323 18.3327 21.7162 17.5119 21.7162 16.4994V5.49935C21.7162 4.48683 20.8323 3.66602 19.7419 3.66602Z" fill="#FFFFFE" stroke="#1F1F27" stroke-width="1.6" stroke-linecap="round" stroke-linejoin="round"/>
<path d="M21.7162 6.41602L12.8405 11.6658C12.5393 11.8282 12.1972 11.9138 11.8489 11.9138C11.5006 11.9138 11.1585 11.8282 10.8573 11.6658L1.97266 6.41602" fill="#FFFFFE"/>
<path d="M21.7162 6.41602L12.8405 11.6658C12.5393 11.8282 12.1972 11.9138 11.8489 11.9138C11.5006 11.9138 11.1585 11.8282 10.8573 11.6658L1.97266 6.41602" stroke="#1F1F27" stroke-width="1.6" stroke-linecap="round" stroke-linejoin="round"/>
</svg>
