<svg width="20" height="16" viewBox="0 0 20 16" fill="none" xmlns="http://www.w3.org/2000/svg">
<path d="M20 14C20 15.1046 19.1046 16 18 16H2C0.895431 16 0 15.1046 0 14V3.94824L8.57031 9.40234C8.57941 9.40813 8.5893 9.41353 8.59863 9.41895C9.02569 9.66689 9.51106 9.79785 10.0049 9.79785C10.4987 9.79778 10.9841 9.66698 11.4111 9.41895C11.4205 9.4135 11.4293 9.40719 11.4385 9.40137L20 3.94824V14ZM18 0C19.1046 1.03081e-06 20 0.895431 20 2V2.2002C19.8527 2.20004 19.7037 2.24025 19.5703 2.3252L10.6035 8.03613C10.4213 8.14121 10.2152 8.1972 10.0049 8.19727C9.99967 8.19727 9.99447 8.19636 9.98926 8.19629L8.16602 7.24707L0.429688 2.3252L0.358398 2.28418C0.244241 2.22685 0.121519 2.20293 0 2.20312V2C1.28851e-07 0.89543 0.895431 0 2 0H18Z" fill="#FFFFFE"/>
</svg>
