<svg width="20" height="20" viewBox="0 0 20 20" fill="none" xmlns="http://www.w3.org/2000/svg">
<path d="M4.48789 0.200195C3.47344 0.200195 2.65039 1.02324 2.65039 2.0377V17.9627C2.65039 18.9771 3.47344 19.8002 4.48789 19.8002H8.16289V16.7377C8.16289 15.7232 8.98594 14.9002 10.0004 14.9002C11.0148 14.9002 11.8379 15.7232 11.8379 16.7377V19.8002H15.5129C16.5273 19.8002 17.3504 18.9771 17.3504 17.9627V2.0377C17.3504 1.02324 16.5273 0.200195 15.5129 0.200195H4.48789ZM5.10039 9.3877C5.10039 9.05082 5.37602 8.7752 5.71289 8.7752H6.93789C7.27477 8.7752 7.55039 9.05082 7.55039 9.3877V10.6127C7.55039 10.9496 7.27477 11.2252 6.93789 11.2252H5.71289C5.37602 11.2252 5.10039 10.9496 5.10039 10.6127V9.3877ZM9.38789 8.7752H10.6129C10.9498 8.7752 11.2254 9.05082 11.2254 9.3877V10.6127C11.2254 10.9496 10.9498 11.2252 10.6129 11.2252H9.38789C9.05102 11.2252 8.77539 10.9496 8.77539 10.6127V9.3877C8.77539 9.05082 9.05102 8.7752 9.38789 8.7752ZM12.4504 9.3877C12.4504 9.05082 12.726 8.7752 13.0629 8.7752H14.2879C14.6248 8.7752 14.9004 9.05082 14.9004 9.3877V10.6127C14.9004 10.9496 14.6248 11.2252 14.2879 11.2252H13.0629C12.726 11.2252 12.4504 10.9496 12.4504 10.6127V9.3877ZM5.71289 3.8752H6.93789C7.27477 3.8752 7.55039 4.15082 7.55039 4.4877V5.7127C7.55039 6.04957 7.27477 6.3252 6.93789 6.3252H5.71289C5.37602 6.3252 5.10039 6.04957 5.10039 5.7127V4.4877C5.10039 4.15082 5.37602 3.8752 5.71289 3.8752ZM8.77539 4.4877C8.77539 4.15082 9.05102 3.8752 9.38789 3.8752H10.6129C10.9498 3.8752 11.2254 4.15082 11.2254 4.4877V5.7127C11.2254 6.04957 10.9498 6.3252 10.6129 6.3252H9.38789C9.05102 6.3252 8.77539 6.04957 8.77539 5.7127V4.4877ZM13.0629 3.8752H14.2879C14.6248 3.8752 14.9004 4.15082 14.9004 4.4877V5.7127C14.9004 6.04957 14.6248 6.3252 14.2879 6.3252H13.0629C12.726 6.3252 12.4504 6.04957 12.4504 5.7127V4.4877C12.4504 4.15082 12.726 3.8752 13.0629 3.8752Z" fill="#FFFFFE"/>
</svg>
