<svg width="17" height="17" viewBox="0 0 17 17" fill="none" xmlns="http://www.w3.org/2000/svg">
<path d="M12.6684 16.0034C12.8894 16.0034 13.1014 15.9156 13.2577 15.7593C13.4139 15.603 13.5017 15.3911 13.5017 15.17V10.7117C13.5017 10.3309 13.7651 10.0084 14.1076 9.84421C14.8167 9.50592 15.3836 8.92801 15.7081 8.21245C16.0326 7.4969 16.094 6.68971 15.8813 5.93335C15.6686 5.17698 15.1955 4.52005 14.5457 4.0785C13.8958 3.63695 13.1108 3.43917 12.3292 3.52005C12.0074 2.77189 11.4733 2.13446 10.7931 1.68658C10.1128 1.2387 9.3162 1 8.50175 1C7.68729 1 6.89069 1.2387 6.21044 1.68658C5.53019 2.13446 4.99611 2.77189 4.67425 3.52005C3.89307 3.43973 3.10861 3.6378 2.45919 4.07933C1.80977 4.52086 1.33709 5.17749 1.12449 5.93347C0.911881 6.68944 0.973006 7.4962 1.29708 8.21151C1.62116 8.92682 2.18738 9.50474 2.89591 9.84338C3.23841 10.0084 3.50175 10.3309 3.50175 10.7109V15.17C3.50175 15.3911 3.58954 15.603 3.74582 15.7593C3.9021 15.9156 4.11407 16.0034 4.33508 16.0034H12.6684Z" fill="white" stroke="#1F1F27" stroke-linecap="round" stroke-linejoin="round"/>
<path d="M3 13H14" stroke="#1F1F27" stroke-width="2" stroke-linecap="round" stroke-linejoin="round"/>
</svg>
