<svg width="33" height="42" viewBox="0 0 33 42" fill="none" xmlns="http://www.w3.org/2000/svg">
<path d="M19.25 18.707H25.3815" stroke="#00A430" stroke-width="1.57218" stroke-linecap="round"/>
<path d="M19.1719 28.377H25.3034" stroke="#00A430" stroke-width="1.57218" stroke-linecap="round"/>
<path d="M7.77659 6.10399C5.95351 5.74407 1.60265 6.11839 2.03403 10.495C1.9724 15.2171 2.00835 29.9786 2.03403 36.7691C1.98267 37.8969 2.65026 40.1092 5.73152 39.9364C8.81277 40.0516 21.2919 39.9844 27.1462 39.9364C28.3017 39.9604 30.6743 39.3605 30.9208 36.7691C30.8592 32.9684 30.8951 17.1415 30.9208 9.70323C31.0492 8.50348 31.4494 6.2161 27.7625 6.10399H25.2205" stroke="#00A430" stroke-width="2.20105"/>
<path d="M7.85156 18.7103L10.0662 20.8535C10.1895 20.9728 10.3858 20.9712 10.5072 20.8499L15.0836 16.2734" stroke="#00A430" stroke-width="1.57218" stroke-linecap="round"/>
<path d="M8.16797 28.3382L10.2697 30.4994C10.3946 30.6279 10.6014 30.6262 10.7241 30.4957L15.0855 25.8613" stroke="#00A430" stroke-width="1.57218" stroke-linecap="round"/>
<path d="M21.0581 4.55931C21.0581 7.07735 19.0168 9.11862 16.4988 9.11862C13.9807 9.11862 11.9395 7.07735 11.9395 4.55931C11.9395 2.04127 13.9807 0 16.4988 0C19.0168 0 21.0581 2.04127 21.0581 4.55931Z" fill="#00A430"/>
<path d="M23.043 9.04173C24.0319 9.04173 24.8648 8.21052 24.4864 7.29696C24.2573 6.7438 23.9214 6.24118 23.4981 5.81781C23.0747 5.39444 22.5721 5.05861 22.0189 4.82948C21.4658 4.60035 20.8729 4.48242 20.2742 4.48242C19.6754 4.48242 19.0825 4.60035 18.5294 4.82948C17.9762 5.05861 17.4736 5.39444 17.0502 5.81781C16.6269 6.24118 16.291 6.7438 16.0619 7.29696C15.6835 8.21052 16.5164 9.04173 17.5053 9.04173L20.2742 9.04173H23.043Z" fill="#00A430"/>
<path d="M15.4962 9.04173C16.485 9.04173 17.3179 8.21052 16.9395 7.29696C16.7104 6.7438 16.3746 6.24118 15.9512 5.81781C15.5278 5.39444 15.0252 5.05861 14.4721 4.82948C13.9189 4.60035 13.326 4.48242 12.7273 4.48242C12.1285 4.48242 11.5357 4.60035 10.9825 4.82948C10.4293 5.05861 9.92673 5.39444 9.50336 5.81781C9.07999 6.24118 8.74415 6.7438 8.51503 7.29696C8.13662 8.21052 8.96957 9.04173 9.9584 9.04173L12.7273 9.04173H15.4962Z" fill="#00A430"/>
</svg>
