<svg width="20" height="20" viewBox="0 0 20 20" fill="none" xmlns="http://www.w3.org/2000/svg">
<path d="M5.07935 5.03748V2.81539C5.07935 2.30408 5.39844 1.84274 5.87899 1.66205L9.56967 0.278045C9.84648 0.174246 10.154 0.174246 10.4347 0.278045L14.1254 1.66205C14.6059 1.84274 14.925 2.30023 14.925 2.81539V5.03748H14.9135C14.9212 5.13744 14.925 5.24124 14.925 5.34504V6.88282C14.925 9.60085 12.7221 11.8037 10.0041 11.8037C7.28606 11.8037 5.08319 9.60085 5.08319 6.88282V5.34504C5.08319 5.24124 5.08704 5.13744 5.09473 5.03748H5.07935ZM6.92469 6.88282C6.92469 8.58207 8.301 9.95839 10.0003 9.95839C11.6995 9.95839 13.0758 8.58207 13.0758 6.88282V6.26771H6.92469V6.88282ZM5.69062 12.7149C6.09428 12.5842 6.52871 12.7302 6.82089 13.0416L9.55045 15.9442C9.79265 16.2018 10.204 16.2018 10.4462 15.9442L13.1758 13.0416C13.468 12.7302 13.9024 12.5842 14.306 12.7149C16.8049 13.5184 18.6118 15.8558 18.6118 18.62C18.6118 19.2735 18.0813 19.8002 17.4316 19.8002H2.56892C1.9192 19.8002 1.38867 19.2697 1.38867 18.6199C1.38867 15.8558 3.19556 13.5184 5.69062 12.7149ZM9.38514 1.96192V2.57703H8.77002C8.60087 2.57703 8.46247 2.71543 8.46247 2.88459V3.4997C8.46247 3.66886 8.60087 3.80726 8.77002 3.80726H9.38514V4.42237C9.38514 4.59153 9.52354 4.72993 9.69269 4.72993H10.3078C10.477 4.72993 10.6154 4.59153 10.6154 4.42237V3.80726H11.2305C11.3996 3.80726 11.538 3.66886 11.538 3.4997V2.88459C11.538 2.71543 11.3996 2.57703 11.2305 2.57703H10.6154V1.96192C10.6154 1.79276 10.477 1.65436 10.3078 1.65436H9.69269C9.52354 1.65436 9.38514 1.79276 9.38514 1.96192Z" fill="#FFFFFE"/>
</svg>
