<svg width="21" height="21" viewBox="0 0 21 21" fill="none" xmlns="http://www.w3.org/2000/svg">
<g clip-path="url(#clip0_10427_3679)">
<path d="M10.459 5.49609C10.619 5.56554 10.7491 5.67033 10.8846 5.77808C10.9222 5.80781 10.9222 5.80781 10.9605 5.83814C11.1909 6.02154 11.4139 6.21293 11.6366 6.40549C11.7884 6.5365 11.9433 6.66342 12.0988 6.78985C12.2517 6.91425 12.4038 7.03956 12.5559 7.16492C12.6163 7.21464 12.6766 7.26436 12.737 7.31408C12.7673 7.33905 12.7976 7.36403 12.8288 7.38976C12.9754 7.51052 13.122 7.63124 13.2686 7.75195C13.3267 7.7998 13.3848 7.84766 13.4429 7.89551C13.486 7.93104 13.486 7.93104 13.5301 7.96729C13.6172 8.03906 13.7044 8.11084 13.7915 8.18262C13.8203 8.20631 13.8491 8.23001 13.8787 8.25442C13.9367 8.30217 13.9947 8.34992 14.0526 8.39768C14.1999 8.51895 14.3471 8.64014 14.4946 8.76116C14.7633 8.9819 15.0314 9.20313 15.2963 9.42847C15.4747 9.58019 15.6555 9.72819 15.839 9.87371C16.0814 10.068 16.3202 10.2669 16.5599 10.4647C16.651 10.5399 16.7423 10.6149 16.8336 10.6899C17.1304 10.9336 17.4264 11.178 17.7179 11.428C17.8114 11.5078 17.9034 11.5801 18.0059 11.6484C18.0216 11.7614 18.0216 11.7614 18.0221 11.9083C18.0223 11.9353 18.0226 11.9623 18.0228 11.9901C18.0235 12.0809 18.0233 12.1717 18.0231 12.2625C18.0234 12.3274 18.0238 12.3924 18.0242 12.4573C18.0251 12.6341 18.0252 12.8109 18.0251 12.9877C18.0251 13.1353 18.0255 13.2828 18.0258 13.4304C18.0266 13.7788 18.0267 14.1271 18.0264 14.4755C18.0262 14.8346 18.0271 15.1937 18.0286 15.5528C18.0299 15.8611 18.0303 16.1695 18.0302 16.4778C18.0301 16.662 18.0303 16.8461 18.0313 17.0302C18.0322 17.2036 18.0322 17.377 18.0313 17.5504C18.0312 17.6139 18.0314 17.6773 18.032 17.7408C18.0375 18.375 18.0375 18.375 17.8008 18.6211C17.6039 18.7925 17.4376 18.8724 17.1765 18.8721C17.1322 18.8722 17.0879 18.8722 17.0422 18.8723C16.9935 18.8721 16.9449 18.872 16.8948 18.8718C16.8435 18.8719 16.7923 18.8719 16.7395 18.8719C16.599 18.8718 16.4585 18.8716 16.318 18.8713C16.1712 18.8711 16.0244 18.8711 15.8776 18.871C15.5996 18.8709 15.3216 18.8706 15.0435 18.8701C14.6678 18.8696 14.2922 18.8694 13.9165 18.8691C13.3245 18.8688 12.7326 18.8679 12.1407 18.8672C12.1407 17.2159 12.1407 15.5646 12.1407 13.8633C11.0578 13.8633 9.97503 13.8633 8.8594 13.8633C8.8594 15.5146 8.8594 17.1659 8.8594 18.8672C7.55606 18.8738 7.55606 18.8738 7.00921 18.8752C6.63187 18.8762 6.25454 18.8773 5.8772 18.8796C5.60237 18.8812 5.32754 18.8823 5.0527 18.8826C4.90725 18.8828 4.76182 18.8833 4.61638 18.8845C4.45378 18.8859 4.29119 18.8859 4.12859 18.8858C4.05672 18.8867 4.05672 18.8867 3.9834 18.8876C3.68561 18.8861 3.44362 18.8543 3.21908 18.6452C3.03392 18.4373 2.98423 18.2528 2.98072 17.9796C2.98027 17.9528 2.97982 17.926 2.97936 17.8984C2.97798 17.8088 2.97719 17.7192 2.9764 17.6297C2.97555 17.5653 2.97467 17.5009 2.97376 17.4366C2.97098 17.2255 2.96911 17.0144 2.96741 16.8033C2.96697 16.7493 2.96697 16.7493 2.96651 16.6943C2.96376 16.3547 2.96137 16.0151 2.95981 15.6755C2.95778 15.242 2.95398 14.8085 2.94775 14.375C2.94352 14.0697 2.94134 13.7644 2.94067 13.4591C2.94021 13.277 2.93886 13.0949 2.93529 12.9128C2.93197 12.7413 2.93121 12.5699 2.93236 12.3983C2.93234 12.3357 2.93143 12.273 2.92951 12.2104C2.91617 11.7514 2.91617 11.7514 3.04692 11.5788C3.19157 11.4295 3.35577 11.3135 3.52737 11.1973C3.58025 11.1559 3.63285 11.1142 3.68487 11.0718C3.72679 11.0396 3.76872 11.0074 3.81192 10.9742C4.03668 10.8 4.25377 10.6183 4.46885 10.4322C4.6848 10.2454 4.90517 10.0645 5.12698 9.88477C5.36913 9.688 5.60963 9.4896 5.84732 9.28748C6.03085 9.13149 6.21663 8.97911 6.40536 8.82941C6.64808 8.6349 6.88713 8.43586 7.12699 8.23785C7.2449 8.14055 7.36291 8.04337 7.48092 7.94621C7.53867 7.89866 7.59641 7.85111 7.65414 7.80355C7.80138 7.68226 7.94869 7.56106 8.09613 7.44001C8.36484 7.21927 8.63298 6.99804 8.89786 6.77271C9.07559 6.62152 9.25571 6.47398 9.43859 6.32906C9.63028 6.17535 9.81942 6.01855 10.0088 5.86206C10.158 5.7389 10.3075 5.61635 10.459 5.49609Z" fill="#00A430"/>
<path d="M11.3852 2.36327C11.673 2.56318 11.9334 2.79847 12.1963 3.02945C12.3557 3.16918 12.5194 3.30316 12.684 3.43656C12.8117 3.54094 12.9375 3.64732 13.0631 3.75411C13.225 3.8917 13.3878 4.02778 13.5527 4.16171C13.7555 4.32672 13.9543 4.49609 14.1523 4.66678C14.175 4.68643 14.1978 4.70607 14.2213 4.72631C14.2412 4.74351 14.2611 4.76071 14.2816 4.77842C14.3874 4.86854 14.4943 4.95725 14.6012 5.04611C14.6014 5.01479 14.6017 4.98348 14.6019 4.95122C14.6043 4.65553 14.6073 4.35985 14.6109 4.06417C14.6127 3.91217 14.6143 3.76018 14.6154 3.60818C14.6165 3.46137 14.6181 3.31458 14.6202 3.16778C14.6209 3.11189 14.6213 3.056 14.6216 3.0001C14.622 2.92157 14.6232 2.84304 14.6245 2.76451C14.6249 2.71988 14.6254 2.67525 14.6259 2.62927C14.6449 2.48202 14.6882 2.38352 14.7653 2.25704C14.9143 2.15771 14.9851 2.1642 15.1626 2.1631C15.1903 2.16282 15.218 2.16254 15.2465 2.16226C15.3381 2.16148 15.4296 2.16132 15.5212 2.16123C15.5849 2.16097 15.6486 2.16069 15.7123 2.16041C15.8458 2.15991 15.9794 2.15976 16.113 2.15981C16.284 2.15982 16.4549 2.1587 16.6259 2.15729C16.7575 2.15637 16.8891 2.15621 17.0207 2.15625C17.0837 2.15616 17.1467 2.15579 17.2098 2.15516C17.298 2.15435 17.3862 2.15459 17.4745 2.15508C17.5247 2.15497 17.5749 2.15485 17.6266 2.15473C17.7844 2.17883 17.8518 2.22819 17.9645 2.33907C18.0175 2.44508 18.0105 2.52089 18.0104 2.63962C18.0105 2.70916 18.0105 2.70916 18.0106 2.7801C18.0104 2.8312 18.0103 2.8823 18.0101 2.93494C18.0102 2.98856 18.0102 3.04218 18.0102 3.09742C18.0102 3.2447 18.0099 3.39197 18.0097 3.53924C18.0094 3.69307 18.0094 3.84689 18.0093 4.00071C18.0092 4.2921 18.0089 4.58349 18.0084 4.87488C18.008 5.20657 18.0078 5.53826 18.0076 5.86995C18.0071 6.55237 18.0064 7.23479 18.0055 7.9172C18.03 7.92862 18.0544 7.94003 18.0797 7.9518C18.2155 8.02345 18.3241 8.12652 18.4387 8.22738C18.4904 8.27228 18.5421 8.31714 18.5938 8.36196C18.6193 8.38406 18.6448 8.40617 18.671 8.42894C18.7699 8.51389 18.8707 8.59639 18.9719 8.67855C19.1378 8.81322 19.3014 8.95024 19.4641 9.08871C19.6187 9.22016 19.7742 9.34975 19.9332 9.4758C20.1421 9.64141 20.3454 9.81323 20.5483 9.98609C20.6212 10.0482 20.6943 10.1101 20.7678 10.1716C20.9896 10.3579 20.9896 10.3579 21.0123 10.4964C21.0254 10.7243 20.9865 10.8456 20.8402 11.0192C20.8116 11.0513 20.783 11.0834 20.7535 11.1164C20.7139 11.1629 20.6743 11.2094 20.6348 11.256C20.5306 11.3787 20.4256 11.5006 20.3199 11.622C20.281 11.6676 20.2428 11.7139 20.2054 11.7609C20.0722 11.9282 19.9848 11.9885 19.7692 12.0188C19.5818 11.9722 19.4613 11.8999 19.3154 11.7752C19.2765 11.7423 19.2375 11.7094 19.1973 11.6754C19.1555 11.6395 19.1137 11.6035 19.0719 11.5676C19.0056 11.5114 18.9393 11.4553 18.8729 11.3992C18.8276 11.3609 18.7823 11.3225 18.7371 11.2841C18.597 11.1652 18.4557 11.0479 18.3131 10.9319C18.1243 10.7781 17.9382 10.6214 17.7527 10.4637C17.6125 10.3448 17.4713 10.2275 17.3287 10.1115C17.1399 9.95782 16.9538 9.80106 16.7683 9.64338C16.6282 9.5245 16.4869 9.40724 16.3444 9.29122C16.1555 9.1375 15.9695 8.98074 15.7839 8.82307C15.6438 8.70419 15.5025 8.58692 15.36 8.47091C15.1711 8.31719 14.9851 8.16043 14.7995 8.00276C14.6594 7.88388 14.5181 7.76661 14.3756 7.6506C14.1868 7.49688 14.0007 7.34012 13.8152 7.18244C13.675 7.06357 13.5338 6.9463 13.3912 6.83029C13.2024 6.67657 13.0163 6.5198 12.8308 6.36213C12.6907 6.24325 12.5494 6.12598 12.4069 6.00997C12.218 5.85625 12.032 5.69949 11.8464 5.54182C11.6705 5.3926 11.4924 5.24634 11.3132 5.10106C11.227 5.0299 11.142 4.958 11.0575 4.88477C11.0338 4.86431 11.0101 4.84384 10.9857 4.82276C10.9397 4.78299 10.8939 4.743 10.8483 4.70276C10.7247 4.59605 10.6144 4.52219 10.4586 4.47189C10.4254 4.50017 10.3921 4.52846 10.3578 4.5576C10.1399 4.74268 9.9216 4.92713 9.69983 5.10763C9.53413 5.2425 9.37043 5.37945 9.20764 5.51779C9.00873 5.68681 8.80767 5.85288 8.60522 6.01766C8.47682 6.12324 8.34993 6.23046 8.22326 6.3381C8.02436 6.50712 7.8233 6.67319 7.62085 6.83798C7.49245 6.94355 7.36556 7.05077 7.23889 7.15841C7.03998 7.32744 6.83892 7.49351 6.63647 7.65829C6.50807 7.76386 6.38118 7.87109 6.25451 7.97872C6.05561 8.14775 5.85455 8.31382 5.6521 8.4786C5.5237 8.58418 5.39681 8.6914 5.27014 8.79904C5.07123 8.96806 4.87017 9.13413 4.66772 9.29892C4.53932 9.40449 4.41243 9.51171 4.28577 9.61935C4.08686 9.78838 3.8858 9.95444 3.68335 10.1192C3.55495 10.2248 3.42806 10.332 3.30139 10.4397C3.10248 10.6087 2.90142 10.7748 2.69897 10.9395C2.57057 11.0451 2.44369 11.1524 2.31702 11.26C2.14679 11.4044 1.97625 11.5483 1.80432 11.6906C1.76964 11.7194 1.73495 11.7482 1.69922 11.7778C1.52262 11.9136 1.37495 12.0095 1.14807 12.0188C0.91733 11.932 0.793138 11.7907 0.640501 11.606C0.617383 11.5787 0.594265 11.5514 0.570446 11.5232C0.502696 11.4427 0.435606 11.3617 0.368773 11.2805C0.341194 11.2471 0.341194 11.2471 0.313057 11.213C-0.0219231 10.8052 -0.0219231 10.8052 -0.0163895 10.5161C0.031889 10.224 0.355785 10.0356 0.571448 9.86352C0.704189 9.75706 0.834013 9.64769 0.963499 9.53732C1.16238 9.36826 1.36347 9.20222 1.56592 9.03744C1.69432 8.93187 1.82121 8.82464 1.94787 8.71701C2.14678 8.54798 2.34784 8.38191 2.55029 8.21713C2.67869 8.11156 2.80558 8.00433 2.93225 7.89669C3.13116 7.72767 3.33222 7.5616 3.53467 7.39681C3.66307 7.29124 3.78996 7.18402 3.91662 7.07638C4.11553 6.90735 4.31659 6.74129 4.51904 6.5765C4.64744 6.47093 4.77433 6.36371 4.901 6.25607C5.09991 6.08704 5.30097 5.92097 5.50342 5.75619C5.63182 5.65062 5.75871 5.54339 5.88537 5.43576C6.08428 5.26673 6.28534 5.10066 6.48779 4.93588C6.61619 4.8303 6.74308 4.72308 6.86975 4.61544C7.0688 4.44629 7.26999 4.28007 7.47265 4.11524C7.59851 4.01168 7.72248 3.90608 7.84643 3.80026C8.05137 3.62549 8.26129 3.45854 8.47426 3.29371C8.65945 3.14915 8.83651 2.99672 9.01282 2.84152C9.70649 2.23523 10.5087 1.82523 11.3852 2.36327Z" fill="#00A430"/>
</g>
<defs>
<clipPath id="clip0_10427_3679">
<rect width="21" height="21" fill="white"/>
</clipPath>
</defs>
</svg>
