<svg width="25" height="24" viewBox="0 0 25 24" fill="none" xmlns="http://www.w3.org/2000/svg">
<path d="M21.126 15L18.0214 11.914C17.6441 11.5391 17.1324 11.3284 16.5989 11.3284C16.0654 11.3284 15.5537 11.5391 15.1764 11.914L6.03565 21M5.02963 3H19.114C20.2252 3 21.126 3.89543 21.126 5V19C21.126 20.1046 20.2252 21 19.114 21H5.02963C3.9184 21 3.01758 20.1046 3.01758 19V5C3.01758 3.89543 3.9184 3 5.02963 3ZM11.0658 9C11.0658 10.1046 10.1649 11 9.05372 11C7.9425 11 7.04167 10.1046 7.04167 9C7.04167 7.89543 7.9425 7 9.05372 7C10.1649 7 11.0658 7.89543 11.0658 9Z" stroke="#00A430" stroke-width="2" stroke-linecap="round" stroke-linejoin="round"/>
</svg>
