<svg width="16" height="16" viewBox="0 0 16 16" fill="none" xmlns="http://www.w3.org/2000/svg">
<g clip-path="url(#clip0_9743_12180)">
<path d="M14.6673 8.00065C14.6673 11.6825 11.6825 14.6673 8.00065 14.6673M14.6673 8.00065C14.6673 4.31875 11.6825 1.33398 8.00065 1.33398M14.6673 8.00065H1.33398M8.00065 14.6673C4.31875 14.6673 1.33398 11.6825 1.33398 8.00065M8.00065 14.6673C6.28881 12.8699 5.33398 10.4828 5.33398 8.00065C5.33398 5.51848 6.28881 3.13142 8.00065 1.33398M8.00065 14.6673C9.71249 12.8699 10.6673 10.4828 10.6673 8.00065C10.6673 5.51848 9.71249 3.13142 8.00065 1.33398M1.33398 8.00065C1.33398 4.31875 4.31875 1.33398 8.00065 1.33398" stroke="#00A430" stroke-width="2" stroke-linecap="round" stroke-linejoin="round"/>
</g>
<defs>
<clipPath id="clip0_9743_12180">
<rect width="16" height="16" fill="white"/>
</clipPath>
</defs>
</svg>
