<svg width="20" height="20" viewBox="0 0 20 20" fill="none" xmlns="http://www.w3.org/2000/svg">
<g clip-path="url(#clip0_10427_3707)">
<path d="M3.2625 0.199219C1.91117 0.199219 0.8125 1.29789 0.8125 2.64922V17.3492C0.8125 18.7005 1.91117 19.7992 3.2625 19.7992H14.2875C15.6388 19.7992 16.7375 18.7005 16.7375 17.3492V2.64922C16.7375 1.29789 15.6388 0.199219 14.2875 0.199219H3.2625ZM7.55 11.2242H10C11.692 11.2242 13.0625 12.5947 13.0625 14.2867C13.0625 14.6236 12.7869 14.8992 12.45 14.8992H5.1C4.76313 14.8992 4.4875 14.6236 4.4875 14.2867C4.4875 12.5947 5.85797 11.2242 7.55 11.2242ZM6.325 7.54922C6.325 5.66321 8.36667 4.48445 10 5.42746C10.758 5.86511 11.225 6.67392 11.225 7.54922C11.225 9.43523 9.18333 10.614 7.55 9.67098C6.79197 9.23333 6.325 8.42452 6.325 7.54922ZM19.1875 3.26172C19.1875 2.92484 18.9119 2.64922 18.575 2.64922C18.2381 2.64922 17.9625 2.92484 17.9625 3.26172V5.71172C17.9625 6.04859 18.2381 6.32422 18.575 6.32422C18.9119 6.32422 19.1875 6.04859 19.1875 5.71172V3.26172ZM18.575 7.54922C18.2381 7.54922 17.9625 7.82484 17.9625 8.16172V10.6117C17.9625 10.9486 18.2381 11.2242 18.575 11.2242C18.9119 11.2242 19.1875 10.9486 19.1875 10.6117V8.16172C19.1875 7.82484 18.9119 7.54922 18.575 7.54922ZM19.1875 13.0617C19.1875 12.7248 18.9119 12.4492 18.575 12.4492C18.2381 12.4492 17.9625 12.7248 17.9625 13.0617V15.5117C17.9625 15.8486 18.2381 16.1242 18.575 16.1242C18.9119 16.1242 19.1875 15.8486 19.1875 15.5117V13.0617Z" fill="#FFFFFE"/>
</g>
<defs>
<clipPath id="clip0_10427_3707">
<rect width="20" height="20" fill="white"/>
</clipPath>
</defs>
</svg>
