<svg width="40" height="40" viewBox="0 0 40 40" fill="none" xmlns="http://www.w3.org/2000/svg">
<circle cx="20" cy="20" r="20" fill="#00A430"/>
<path d="M20.0007 13.3327C21.834 13.3327 23.334 14.8327 23.334 16.666C23.334 18.416 21.584 21.2493 20.0007 23.2493C18.4173 21.166 16.6673 18.416 16.6673 16.666C16.6673 14.8327 18.1673 13.3327 20.0007 13.3327ZM20.0007 11.666C17.2507 11.666 15.0007 13.916 15.0007 16.666C15.0007 20.416 20.0007 25.8327 20.0007 25.8327C20.0007 25.8327 25.0007 20.3327 25.0007 16.666C25.0007 13.916 22.7507 11.666 20.0007 11.666ZM20.0007 14.9993C19.084 14.9993 18.334 15.7493 18.334 16.666C18.334 17.5827 19.084 18.3327 20.0007 18.3327C20.9173 18.3327 21.6673 17.5827 21.6673 16.666C21.6673 15.7493 20.9173 14.9993 20.0007 14.9993ZM26.6673 25.8327C26.6673 27.666 23.6673 29.166 20.0007 29.166C16.334 29.166 13.334 27.666 13.334 25.8327C13.334 24.7493 14.334 23.8327 15.9173 23.166L16.4173 23.916C15.584 24.3327 15.0007 24.8327 15.0007 25.416C15.0007 26.5827 17.2507 27.4993 20.0007 27.4993C22.7507 27.4993 25.0007 26.5827 25.0007 25.416C25.0007 24.8327 24.4173 24.3327 23.5007 23.916L24.0007 23.166C25.6673 23.8327 26.6673 24.7493 26.6673 25.8327Z" fill="#FFFFFE"/>
</svg>
