<svg width="20" height="20" viewBox="0 0 20 20" fill="none" xmlns="http://www.w3.org/2000/svg">
<path d="M10 1.25C6.875 1.25 4.375 3.75 4.375 6.8125C4.375 11.4375 9.375 15.375 9.625 15.5C9.75 15.5625 9.875 15.625 10 15.625C10.125 15.625 10.25 15.5625 10.375 15.5C10.625 15.3125 15.625 11.4375 15.625 6.8125C15.625 3.75 13.125 1.25 10 1.25ZM10 8.75C8.9375 8.75 8.125 7.9375 8.125 6.875C8.125 5.8125 8.9375 5 10 5C11.0625 5 11.875 5.8125 11.875 6.875C11.875 7.9375 11.0625 8.75 10 8.75Z" fill="#FFFFFE"/>
<path d="M18.6874 17.875L16.1874 12.875C16.0624 12.625 15.8749 12.5 15.6249 12.5H14.8749C13.3749 14.75 11.4999 16.25 11.1249 16.5C10.8124 16.75 10.4374 16.875 9.9999 16.875C9.5624 16.875 9.1874 16.75 8.8749 16.5C8.5624 16.25 6.6249 14.75 5.1249 12.5H4.3749C4.1249 12.5 3.9374 12.625 3.8124 12.875L1.3124 17.875C1.1874 18.0625 1.2499 18.3125 1.3124 18.5C1.3749 18.6875 1.6874 18.75 1.8749 18.75H18.1249C18.3124 18.75 18.5624 18.625 18.6874 18.4375C18.8124 18.25 18.7499 18.0625 18.6874 17.875Z" fill="#FFFFFE"/>
</svg>
