<svg width="20" height="20" viewBox="0 0 20 20" fill="none" xmlns="http://www.w3.org/2000/svg">
<path d="M12.2491 5.25043C12.0965 5.4062 12.0109 5.61564 12.0109 5.83376C12.0109 6.05189 12.0965 6.26132 12.2491 6.4171L13.5825 7.75043C13.7383 7.90312 13.9477 7.98865 14.1658 7.98865C14.3839 7.98865 14.5934 7.90312 14.7491 7.75043L17.8908 4.60876C18.3098 5.53475 18.4367 6.56646 18.2545 7.56639C18.0723 8.56631 17.5897 9.48697 16.871 10.2057C16.1524 10.9244 15.2317 11.407 14.2318 11.5891C13.2318 11.7713 12.2001 11.6445 11.2741 11.2254L5.51581 16.9838C5.18429 17.3153 4.73465 17.5015 4.26581 17.5015C3.79697 17.5015 3.34733 17.3153 3.01581 16.9838C2.68429 16.6522 2.49805 16.2026 2.49805 15.7338C2.49805 15.2649 2.68429 14.8153 3.01581 14.4838L8.77415 8.72543C8.35512 7.79944 8.22824 6.76774 8.41043 5.76781C8.59262 4.76788 9.07522 3.84723 9.79391 3.12853C10.5126 2.40984 11.4333 1.92724 12.4332 1.74505C13.4331 1.56286 14.4648 1.68973 15.3908 2.10876L12.2575 5.2421L12.2491 5.25043Z" fill="#FFFFFE"/>
</svg>
