<svg width="16" height="16" viewBox="0 0 16 16" fill="none" xmlns="http://www.w3.org/2000/svg">
<g clip-path="url(#clip0_9458_3268)">
<path d="M6.84598 14.0007C6.96301 14.2033 7.13133 14.3716 7.33401 14.4886C7.5367 14.6057 7.76661 14.6673 8.00065 14.6673C8.23469 14.6673 8.4646 14.6057 8.66729 14.4886C8.86997 14.3716 9.03829 14.2033 9.15532 14.0007M14.6673 5.33398C14.6673 3.80065 14.134 2.46732 13.334 1.33398M2.66732 1.33398C1.86732 2.46732 1.33398 3.80065 1.33398 5.33398M2.17532 10.218C2.08823 10.3134 2.03075 10.4321 2.00989 10.5597C1.98902 10.6872 2.00566 10.818 2.05779 10.9363C2.10991 11.0545 2.19527 11.155 2.30349 11.2256C2.4117 11.2962 2.5381 11.3339 2.66732 11.334H13.334C13.4632 11.334 13.5896 11.2965 13.6979 11.2261C13.8062 11.1556 13.8916 11.0552 13.9439 10.937C13.9962 10.8188 14.013 10.688 13.9923 10.5605C13.9716 10.433 13.9143 10.3142 13.8273 10.2187C12.9407 9.30465 12.0007 8.33332 12.0007 5.33398C12.0007 4.27312 11.5792 3.2557 10.8291 2.50556C10.0789 1.75541 9.06152 1.33398 8.00065 1.33398C6.93978 1.33398 5.92237 1.75541 5.17222 2.50556C4.42208 3.2557 4.00065 4.27312 4.00065 5.33398C4.00065 8.33332 3.05998 9.30465 2.17532 10.218Z" stroke="#00A430" stroke-width="1.5" stroke-linecap="round" stroke-linejoin="round"/>
</g>
<defs>
<clipPath id="clip0_9458_3268">
<rect width="16" height="16" fill="white"/>
</clipPath>
</defs>
</svg>
