<svg width="16" height="16" viewBox="0 0 16 16" fill="none" xmlns="http://www.w3.org/2000/svg">
<path d="M1.11088 1.8536C0.856082 1.65271 0.48614 1.69925 0.285242 1.95405C0.0843448 2.20884 0.130895 2.57879 0.38569 2.77969L14.8894 14.1475C15.1442 14.3484 15.5142 14.3018 15.7151 14.047C15.916 13.7922 15.8694 13.4223 15.6146 13.2214L13.0373 11.2026C14.0075 10.208 14.664 9.09322 14.9948 8.30189C15.0756 8.10834 15.0756 7.89275 14.9948 7.6992C14.6297 6.82456 13.8629 5.55059 12.7163 4.48731C11.5648 3.41422 9.97972 2.51264 8.00016 2.51264C6.32929 2.51264 4.93771 3.15698 3.85238 4.00221L1.11088 1.8536ZM5.62615 5.39134C6.25089 4.8205 7.08632 4.47261 8.00016 4.47261C9.94787 4.47261 11.5281 6.05283 11.5281 8.00054C11.5281 8.61058 11.3737 9.18387 11.1018 9.68366L10.1561 8.94378C10.3619 8.47094 10.4158 7.92949 10.2737 7.39295C10.0018 6.37622 9.10264 5.69268 8.10306 5.65103C7.96096 5.64613 7.87766 5.80048 7.92176 5.93768C7.97321 6.09448 8.00261 6.26107 8.00261 6.43502C8.00261 6.68492 7.94381 6.92011 7.84091 7.12836L5.6286 5.39379L5.62615 5.39134ZM9.29863 11.281C8.89684 11.4403 8.4583 11.5285 8.00016 11.5285C6.05244 11.5285 4.47222 9.94826 4.47222 8.00054C4.47222 7.8315 4.48447 7.66735 4.50652 7.50565L2.19621 5.68533C1.63762 6.41297 1.23827 7.13816 1.00553 7.6992C0.924682 7.89275 0.924682 8.10834 1.00553 8.30189C1.37057 9.17652 2.13741 10.4505 3.28399 11.5138C4.43547 12.5869 6.02059 13.4884 8.00016 13.4884C9.17124 13.4884 10.2027 13.1724 11.092 12.6922L9.29863 11.281Z" fill="#00A430"/>
</svg>
