<svg width="16" height="16" viewBox="0 0 16 16" fill="none" xmlns="http://www.w3.org/2000/svg">
<path d="M8.00065 5.33271V7.99938M8.00065 10.666H8.00732M5.26732 13.3327C6.5397 13.9854 8.00337 14.1622 9.39458 13.8312C10.7858 13.5003 12.013 12.6833 12.8552 11.5275C13.6973 10.3717 14.0989 8.95319 13.9877 7.52749C13.8765 6.10179 13.2597 4.76269 12.2485 3.75151C11.2373 2.74032 9.89824 2.12355 8.47254 2.01232C7.04684 1.9011 5.6283 2.30274 4.47253 3.14488C3.31676 3.98701 2.49978 5.21425 2.1688 6.60546C1.83782 7.99666 2.01461 9.46033 2.66732 10.7327L1.33398 14.666L5.26732 13.3327Z" stroke="#00A430" stroke-width="1.3" stroke-linecap="round" stroke-linejoin="round"/>
</svg>
