<svg width="40" height="40" viewBox="0 0 40 40" fill="none" xmlns="http://www.w3.org/2000/svg">
<circle cx="20" cy="20" r="20" fill="#00A430"/>
<path d="M19.119 23.9456C19.119 22.761 19.487 21.437 20.0892 20.3918C20.7917 19.1026 21.5946 18.58 22.2303 17.6044C23.2674 16.0017 23.4681 13.7021 22.799 11.9601C22.1299 10.1831 20.5576 9.13788 18.7176 9.17272C16.8775 9.20756 15.3721 10.3922 14.8034 12.1691C14.1343 14.1202 14.4354 16.4895 15.9408 17.9528C16.5765 18.5451 17.1452 19.5207 16.8106 20.4266C16.5095 21.2976 15.5059 21.6809 14.8034 22.0293C13.1641 22.761 11.2237 23.8062 10.8892 25.8271C10.5546 27.4646 11.6252 29.1719 13.3648 29.1719H20.4572C20.7917 29.1719 20.9925 28.7538 20.7917 28.475C19.7212 27.2207 19.119 25.618 19.119 23.9456ZM25.8099 18.7194C23.0667 18.7194 20.7917 21.0538 20.7917 23.9456C20.7917 26.8375 23.0332 29.1719 25.8099 29.1719C28.5867 29.1719 30.8281 26.8375 30.8281 23.9456C30.8281 21.0538 28.5867 18.7194 25.8099 18.7194ZM26.6798 24.4334C26.5459 24.4334 26.3787 24.3986 26.2783 24.3637L24.3714 26.3497C24.2376 26.4891 24.0703 26.5239 23.9699 26.5239C23.8027 26.5239 23.6688 26.4891 23.5685 26.3497C23.3677 26.1406 23.3677 25.7574 23.5685 25.4786L25.4754 23.4927C25.4419 23.3533 25.4085 23.2488 25.4085 23.0746C25.3416 22.1687 26.0441 21.3325 26.9139 21.3325C27.0478 21.3325 27.215 21.3673 27.3154 21.4022C27.3823 21.4022 27.3823 21.4719 27.3488 21.5415L26.479 22.4126C26.4121 22.4474 26.4121 22.5868 26.479 22.6216L27.0478 23.2139C27.1147 23.2836 27.215 23.2836 27.2819 23.2139L28.1183 22.3429C28.1518 22.3081 28.2521 22.3081 28.2521 22.3777C28.2856 22.5171 28.319 22.6913 28.319 22.7958C28.3525 23.7714 27.6165 24.5031 26.6798 24.4334Z" fill="#FFFFFE"/>
</svg>
