<svg width="62" height="10" viewBox="0 0 62 10" fill="none" xmlns="http://www.w3.org/2000/svg">
<path d="M17.3604 0.452905C17.5617 -0.150968 18.4383 -0.150968 18.6396 0.452905L19.3589 2.61051C19.4489 2.88058 19.7071 3.06342 19.9985 3.06342H22.3262C22.9777 3.06342 23.2486 3.87592 22.7215 4.24914L20.8383 5.58261C20.6026 5.74949 20.504 6.04536 20.594 6.31541L21.3133 8.47302C21.5146 9.07689 20.8055 9.57909 20.2784 9.20588L18.3953 7.87237C18.1596 7.70549 17.8404 7.70549 17.6047 7.87237L15.7216 9.20588C15.1945 9.57909 14.4853 9.07689 14.6867 8.47302L15.406 6.31541C15.496 6.04536 15.3974 5.74949 15.1617 5.58261L13.2785 4.24914C12.7514 3.87592 13.0223 3.06342 13.6738 3.06342H16.0015C16.2928 3.06342 16.5511 2.88058 16.6411 2.61051L17.3604 0.452905Z" fill="#EECA01"/>
<path d="M30.3604 0.452905C30.5617 -0.150968 31.4383 -0.150968 31.6396 0.452905L32.3589 2.61051C32.4489 2.88058 32.7071 3.06342 32.9985 3.06342H35.3262C35.9777 3.06342 36.2486 3.87592 35.7215 4.24914L33.8383 5.58261C33.6026 5.74949 33.504 6.04536 33.594 6.31541L34.3133 8.47302C34.5146 9.07689 33.8055 9.57909 33.2784 9.20588L31.3953 7.87237C31.1596 7.70549 30.8404 7.70549 30.6047 7.87237L28.7216 9.20588C28.1945 9.57909 27.4853 9.07689 27.6867 8.47302L28.406 6.31541C28.496 6.04536 28.3974 5.74949 28.1617 5.58261L26.2785 4.24914C25.7514 3.87592 26.0223 3.06342 26.6738 3.06342H29.0015C29.2928 3.06342 29.5511 2.88058 29.6411 2.61051L30.3604 0.452905Z" fill="#EECA01"/>
<path d="M43.3604 0.452905C43.5617 -0.150968 44.4383 -0.150968 44.6396 0.452905L45.3589 2.61051C45.4489 2.88058 45.7071 3.06342 45.9985 3.06342H48.3262C48.9777 3.06342 49.2486 3.87592 48.7215 4.24914L46.8383 5.58261C46.6026 5.74949 46.504 6.04536 46.594 6.31541L47.3133 8.47302C47.5146 9.07689 46.8055 9.57909 46.2784 9.20588L44.3953 7.87237C44.1596 7.70549 43.8404 7.70549 43.6047 7.87237L41.7216 9.20588C41.1945 9.57909 40.4853 9.07689 40.6867 8.47302L41.406 6.31541C41.496 6.04536 41.3974 5.74949 41.1617 5.58261L39.2785 4.24914C38.7514 3.87592 39.0223 3.06342 39.6738 3.06342H42.0015C42.2928 3.06342 42.5511 2.88058 42.6411 2.61051L43.3604 0.452905Z" fill="#EECA01"/>
<path d="M57 0.5C57.0429 0.500002 57.0802 0.511944 57.1064 0.529297C57.1293 0.544457 57.1507 0.568413 57.165 0.611328L57.8848 2.76855C58.045 3.24907 58.4985 3.56329 58.998 3.56348H61.3262C61.3809 3.56348 61.4139 3.57943 61.4355 3.5957C61.4599 3.61408 61.4802 3.6417 61.4912 3.6748C61.5021 3.70769 61.5023 3.73855 61.4951 3.7627C61.489 3.78324 61.4741 3.81137 61.4326 3.84082L59.5498 5.1748C59.138 5.46638 58.959 5.99037 59.1201 6.47363L59.8389 8.63086C59.853 8.67318 59.8492 8.70139 59.8418 8.72168C59.8328 8.74603 59.8129 8.77473 59.7803 8.79785C59.7155 8.84374 59.6387 8.84829 59.5674 8.79785L57.6846 7.46387C57.2757 7.17444 56.7243 7.17443 56.3154 7.46387L54.4326 8.79785C54.3614 8.84831 54.2846 8.84376 54.2197 8.79785C54.1871 8.77473 54.1672 8.74603 54.1582 8.72168C54.1509 8.7014 54.147 8.67317 54.1611 8.63086L54.8799 6.47363C55.041 5.99043 54.8621 5.4664 54.4502 5.1748L52.5674 3.84082C52.5259 3.81137 52.511 3.78324 52.5049 3.7627C52.4977 3.73855 52.4979 3.70768 52.5088 3.6748C52.5198 3.6417 52.5401 3.61408 52.5645 3.5957C52.5861 3.57944 52.6191 3.56348 52.6738 3.56348H55.002C55.5014 3.56329 55.955 3.2491 56.1152 2.76855L56.835 0.611328C56.8493 0.568407 56.8707 0.544462 56.8936 0.529297C56.9198 0.511947 56.9571 0.5 57 0.5Z" fill="#A0A0A0" stroke="#A0A0A0"/>
<path d="M4.36039 0.452905C4.56171 -0.150968 5.43828 -0.150968 5.63956 0.452905L6.35888 2.61051C6.44893 2.88058 6.7071 3.06342 6.9985 3.06342H9.3262C9.97766 3.06342 10.2486 3.87592 9.7215 4.24914L7.83834 5.58261C7.60262 5.74949 7.50396 6.04536 7.59401 6.31541L8.31333 8.47302C8.51461 9.07689 7.80552 9.57909 7.2784 9.20588L5.3953 7.87237C5.15959 7.70549 4.84041 7.70549 4.6047 7.87237L2.72155 9.20588C2.1945 9.57909 1.48535 9.07689 1.68666 8.47302L2.40596 6.31541C2.49599 6.04536 2.39736 5.74949 2.16166 5.58261L0.278511 4.24914C-0.24855 3.87592 0.0223241 3.06342 0.6738 3.06342H3.0015C3.29285 3.06342 3.55106 2.88058 3.6411 2.61051L4.36039 0.452905Z" fill="#EECA01"/>
</svg>
