<svg width="11" height="11" viewBox="0 0 11 11" fill="none" xmlns="http://www.w3.org/2000/svg">
<path d="M4.8424 1.28494C5.04947 0.681063 5.95108 0.681063 6.15811 1.28494L6.89798 3.44254C6.9906 3.71261 7.25616 3.89545 7.55588 3.89545H9.95008C10.6202 3.89545 10.8988 4.70796 10.3567 5.08117L8.41971 6.41464C8.17726 6.58152 8.07578 6.87739 8.16841 7.14744L8.90828 9.30505C9.11531 9.90892 8.38595 10.4111 7.84378 10.0379L5.90688 8.7044C5.66443 8.53752 5.33612 8.53752 5.09368 8.7044L3.15673 10.0379C2.61462 10.4111 1.88521 9.90892 2.09228 9.30505L2.83212 7.14744C2.92473 6.87739 2.82328 6.58152 2.58084 6.41464L0.64389 5.08117C0.10177 4.70796 0.380384 3.89545 1.05047 3.89545H3.44468C3.74435 3.89545 4.00994 3.71261 4.10255 3.44254L4.8424 1.28494Z" fill="#EECA01"/>
</svg>
