<svg width="48" height="38" viewBox="0 0 48 38" fill="none" xmlns="http://www.w3.org/2000/svg">
<path d="M15.9004 31.0664L13.1171 33.6461C12.9962 33.7582 12.9914 33.9478 13.1066 34.0658L15.9004 36.9278" stroke="#00A430" stroke-width="1.46535" stroke-linecap="round"/>
<path d="M31.5761 31.1387L34.3595 33.7184C34.4804 33.8304 34.4851 34.0201 34.37 34.138L31.5761 37.0001" stroke="#00A430" stroke-width="1.46535" stroke-linecap="round"/>
<path d="M13.041 33.8496L34.2885 34.0694" stroke="#00A430" stroke-width="1.46535" stroke-linecap="round"/>
<path d="M11.7266 20.2227C14.3971 20.2228 16.5615 22.388 16.5615 25.0586C16.5614 27.729 14.397 29.8934 11.7266 29.8936C9.05601 29.8936 6.89078 27.7291 6.89062 25.0586C6.89062 22.3879 9.05591 20.2227 11.7266 20.2227ZM11.7275 23.1543C10.6755 23.1543 9.82227 24.0075 9.82227 25.0596C9.82244 26.1115 10.6756 26.9639 11.7275 26.9639C12.7794 26.9637 13.6317 26.1114 13.6318 25.0596C13.6318 24.0076 12.7795 23.1545 11.7275 23.1543Z" fill="#00A430"/>
<path d="M38.248 20.2227C40.9186 20.2228 43.083 22.388 43.083 25.0586C43.0828 27.729 40.9185 29.8934 38.248 29.8936C35.5775 29.8936 33.4123 27.7291 33.4121 25.0586C33.4121 22.3879 35.5774 20.2227 38.248 20.2227ZM38.249 23.1543C37.1969 23.1543 36.3438 24.0075 36.3438 25.0596C36.3438 26.1116 37.197 26.9648 38.249 26.9648C39.3008 26.9646 40.1532 26.1114 40.1533 25.0596C40.1533 24.0076 39.3009 23.1545 38.249 23.1543Z" fill="#00A430"/>
<path d="M34.9482 0C35.4337 0 35.828 0.393472 35.8281 0.878906V5.71484C35.8281 6.20042 36.2215 6.59375 36.707 6.59375H42.0469C42.3285 6.59383 42.5934 6.72907 42.7588 6.95703L47.1631 13.0303C47.2719 13.1804 47.3311 13.3615 47.3311 13.5469V23.2256C47.3311 23.7112 46.9367 24.1045 46.4512 24.1045H45.0752C44.677 24.1044 44.3323 23.8362 44.1963 23.4619C43.4959 21.5356 41.6797 18.6315 38.5391 18.6836C37.9114 18.6139 33.4338 18.6764 32.3086 23.3574C32.2068 23.781 31.8419 24.1045 31.4062 24.1045H18.7305C18.3169 24.1045 17.9651 23.8153 17.8291 23.4248C17.2056 21.6327 15.4457 18.9412 11.9424 18.6836C11.2396 18.6836 7.3068 18.6836 5.69141 23.458C5.56411 23.8343 5.21949 24.1045 4.82227 24.1045H0.878906C0.393333 24.1045 0 23.7112 0 23.2256V21.9805C0 21.495 0.393472 21.1007 0.878906 21.1006H2.41797C2.90347 21.1005 3.29688 20.7072 3.29688 20.2217V20.0752C3.29685 19.5897 2.90346 19.1964 2.41797 19.1963H0.878906C0.393472 19.1961 0 18.8019 0 18.3164V0.878906C0.000162922 0.393572 0.393572 0.000162955 0.878906 0H34.9482ZM36.1934 8.9375C35.9507 8.93758 35.754 9.13429 35.7539 9.37695V14.6523C35.7539 14.8951 35.9506 15.0917 36.1934 15.0918H44.7588C45.108 15.0915 45.3173 14.7034 45.126 14.4111L41.6719 9.13672C41.5907 9.01275 41.4529 8.93759 41.3047 8.9375H36.1934Z" fill="#00A430"/>
</svg>
