<svg width="16" height="16" viewBox="0 0 16 16" fill="none" xmlns="http://www.w3.org/2000/svg">
<g clip-path="url(#clip0_9925_18278)">
<path d="M9.00065 4.66732C9.18475 4.66732 9.33398 4.51808 9.33398 4.33398C9.33398 4.14989 9.18475 4.00065 9.00065 4.00065C8.81656 4.00065 8.66732 4.14989 8.66732 4.33398C8.66732 4.51808 8.81656 4.66732 9.00065 4.66732Z" fill="#00A430"/>
<path d="M11.6673 7.33398C11.8514 7.33398 12.0007 7.18475 12.0007 7.00065C12.0007 6.81656 11.8514 6.66732 11.6673 6.66732C11.4832 6.66732 11.334 6.81656 11.334 7.00065C11.334 7.18475 11.4832 7.33398 11.6673 7.33398Z" fill="#00A430"/>
<path d="M4.33398 8.66732C4.51808 8.66732 4.66732 8.51808 4.66732 8.33398C4.66732 8.14989 4.51808 8.00065 4.33398 8.00065C4.14989 8.00065 4.00065 8.14989 4.00065 8.33398C4.00065 8.51808 4.14989 8.66732 4.33398 8.66732Z" fill="#00A430"/>
<path d="M5.66732 5.33398C5.85141 5.33398 6.00065 5.18475 6.00065 5.00065C6.00065 4.81656 5.85141 4.66732 5.66732 4.66732C5.48322 4.66732 5.33398 4.81656 5.33398 5.00065C5.33398 5.18475 5.48322 5.33398 5.66732 5.33398Z" fill="#00A430"/>
<path d="M8.00065 14.6673C6.23254 14.6673 4.53685 13.9649 3.28661 12.7147C2.03636 11.4645 1.33398 9.76876 1.33398 8.00065C1.33398 6.23254 2.03636 4.53685 3.28661 3.28661C4.53685 2.03636 6.23254 1.33398 8.00065 1.33398C9.76876 1.33398 11.4645 1.96613 12.7147 3.09134C13.9649 4.21656 14.6673 5.74269 14.6673 7.33398C14.6673 8.21804 14.3161 9.06589 13.691 9.69101C13.0659 10.3161 12.218 10.6673 11.334 10.6673H9.83398C9.61732 10.6673 9.40494 10.7277 9.22063 10.8416C9.03633 10.9555 8.88738 11.1184 8.79049 11.3122C8.69359 11.506 8.65257 11.723 8.67203 11.9388C8.69149 12.1545 8.77065 12.3607 8.90065 12.534L9.10065 12.8007C9.23065 12.974 9.30981 13.1801 9.32927 13.3959C9.34873 13.6117 9.30771 13.8286 9.21082 14.0224C9.11392 14.2162 8.96498 14.3792 8.78067 14.4931C8.59636 14.607 8.38398 14.6673 8.16732 14.6673H8.00065Z" stroke="#00A430" stroke-width="2" stroke-linecap="round" stroke-linejoin="round"/>
<path d="M9.00065 4.66732C9.18475 4.66732 9.33398 4.51808 9.33398 4.33398C9.33398 4.14989 9.18475 4.00065 9.00065 4.00065C8.81656 4.00065 8.66732 4.14989 8.66732 4.33398C8.66732 4.51808 8.81656 4.66732 9.00065 4.66732Z" stroke="#00A430" stroke-width="2" stroke-linecap="round" stroke-linejoin="round"/>
<path d="M11.6673 7.33398C11.8514 7.33398 12.0007 7.18475 12.0007 7.00065C12.0007 6.81656 11.8514 6.66732 11.6673 6.66732C11.4832 6.66732 11.334 6.81656 11.334 7.00065C11.334 7.18475 11.4832 7.33398 11.6673 7.33398Z" stroke="#00A430" stroke-width="2" stroke-linecap="round" stroke-linejoin="round"/>
<path d="M4.33398 8.66732C4.51808 8.66732 4.66732 8.51808 4.66732 8.33398C4.66732 8.14989 4.51808 8.00065 4.33398 8.00065C4.14989 8.00065 4.00065 8.14989 4.00065 8.33398C4.00065 8.51808 4.14989 8.66732 4.33398 8.66732Z" stroke="#00A430" stroke-width="2" stroke-linecap="round" stroke-linejoin="round"/>
<path d="M5.66732 5.33398C5.85141 5.33398 6.00065 5.18475 6.00065 5.00065C6.00065 4.81656 5.85141 4.66732 5.66732 4.66732C5.48322 4.66732 5.33398 4.81656 5.33398 5.00065C5.33398 5.18475 5.48322 5.33398 5.66732 5.33398Z" stroke="#00A430" stroke-width="2" stroke-linecap="round" stroke-linejoin="round"/>
</g>
<defs>
<clipPath id="clip0_9925_18278">
<rect width="16" height="16" fill="white"/>
</clipPath>
</defs>
</svg>
