<svg width="24" height="24" viewBox="0 0 24 24" fill="none" xmlns="http://www.w3.org/2000/svg">
<path d="M15 5L21.3 11.3C21.5237 11.523 21.7013 11.7879 21.8224 12.0796C21.9435 12.3714 22.0059 12.6841 22.0059 13C22.0059 13.3159 21.9435 13.6286 21.8224 13.9204C21.7013 14.2121 21.5237 14.477 21.3 14.7L17 19" stroke="#FFFFFE" stroke-width="2" stroke-linecap="round" stroke-linejoin="round"/>
<path d="M8.17188 5C8.70224 5.00011 9.21096 5.21088 9.58594 5.58594L15.29 11.29C15.7417 11.7445 15.9951 12.3593 15.9951 13C15.9951 13.6407 15.7417 14.2555 15.29 14.71L11.71 18.29C11.2555 18.7417 10.6407 18.9951 10 18.9951C9.35926 18.9951 8.74455 18.7417 8.29004 18.29L2.58594 12.5859C2.21088 12.211 2.00011 11.7022 2 11.1719V6C2 5.73478 2.10543 5.48051 2.29297 5.29297C2.48051 5.10543 2.73478 5 3 5H8.17188ZM6.5 8C5.67157 8 5 8.67157 5 9.5C5 10.3284 5.67157 11 6.5 11C7.32843 11 8 10.3284 8 9.5C8 8.67157 7.32843 8 6.5 8Z" fill="#FFFFFE"/>
</svg>
