<svg width="75" height="20" viewBox="0 0 75 20" fill="none" xmlns="http://www.w3.org/2000/svg">
<rect width="75" height="20" rx="4" fill="#00A430"/>
<path d="M14.75 14.14C14.4033 14.14 14.105 14.085 13.855 13.975C13.6083 13.865 13.4033 13.7183 13.24 13.535C13.0767 13.3517 12.9483 13.1483 12.855 12.925C12.7617 12.7017 12.695 12.4733 12.655 12.24C12.6183 12.0067 12.6 11.7883 12.6 11.585V8.6H13.5V11.305C13.5 11.5583 13.5233 11.8033 13.57 12.04C13.6167 12.2767 13.695 12.49 13.805 12.68C13.9183 12.87 14.0683 13.02 14.255 13.13C14.445 13.24 14.6817 13.295 14.965 13.295C15.1883 13.295 15.3917 13.2567 15.575 13.18C15.7583 13.1033 15.915 12.99 16.045 12.84C16.175 12.6867 16.275 12.4933 16.345 12.26C16.415 12.0267 16.45 11.755 16.45 11.445L17.035 11.625C17.035 12.145 16.94 12.5933 16.75 12.97C16.5633 13.3467 16.2983 13.6367 15.955 13.84C15.615 14.04 15.2133 14.14 14.75 14.14ZM16.55 14V12.555H16.45V8.6H17.345V14H16.55ZM21.2249 14.15C20.7183 14.15 20.2916 14.025 19.9449 13.775C19.5983 13.5217 19.3349 13.18 19.1549 12.75C18.9783 12.3167 18.8899 11.8317 18.8899 11.295C18.8899 10.7517 18.9783 10.265 19.1549 9.835C19.3349 9.405 19.5983 9.06667 19.9449 8.82C20.2949 8.57333 20.7233 8.45 21.2299 8.45C21.7299 8.45 22.1599 8.575 22.5199 8.825C22.8833 9.07167 23.1616 9.41 23.3549 9.84C23.5483 10.27 23.6449 10.755 23.6449 11.295C23.6449 11.835 23.5483 12.32 23.3549 12.75C23.1616 13.18 22.8833 13.5217 22.5199 13.775C22.1599 14.025 21.7283 14.15 21.2249 14.15ZM18.7399 16.4V8.6H19.5349V12.575H19.6349V16.4H18.7399ZM21.1149 13.335C21.4716 13.335 21.7666 13.245 21.9999 13.065C22.2333 12.885 22.4083 12.6417 22.5249 12.335C22.6416 12.025 22.6999 11.6783 22.6999 11.295C22.6999 10.915 22.6416 10.5717 22.5249 10.265C22.4116 9.95833 22.2349 9.715 21.9949 9.535C21.7583 9.355 21.4566 9.265 21.0899 9.265C20.7399 9.265 20.4499 9.35167 20.2199 9.525C19.9899 9.695 19.8183 9.93333 19.7049 10.24C19.5916 10.5433 19.5349 10.895 19.5349 11.295C19.5349 11.6883 19.5899 12.04 19.6999 12.35C19.8133 12.6567 19.9866 12.8983 20.2199 13.075C20.4533 13.2483 20.7516 13.335 21.1149 13.335ZM24.841 14V6.65H25.731V14H24.841ZM29.5313 14.15C28.9946 14.15 28.5313 14.0283 28.1413 13.785C27.7546 13.5417 27.4563 13.205 27.2463 12.775C27.0363 12.345 26.9313 11.8517 26.9313 11.295C26.9313 10.7283 27.0379 10.2317 27.2513 9.805C27.4646 9.37833 27.7663 9.04667 28.1563 8.81C28.5463 8.57 29.0046 8.45 29.5313 8.45C30.0713 8.45 30.5363 8.57167 30.9263 8.815C31.3163 9.055 31.6146 9.39 31.8213 9.82C32.0313 10.2467 32.1363 10.7383 32.1363 11.295C32.1363 11.8583 32.0313 12.355 31.8213 12.785C31.6113 13.2117 31.3113 13.5467 30.9213 13.79C30.5313 14.03 30.0679 14.15 29.5313 14.15ZM29.5313 13.305C30.0913 13.305 30.5079 13.1183 30.7813 12.745C31.0546 12.3717 31.1913 11.8883 31.1913 11.295C31.1913 10.685 31.0529 10.2 30.7763 9.84C30.4996 9.47667 30.0846 9.295 29.5313 9.295C29.1546 9.295 28.8446 9.38 28.6013 9.55C28.3579 9.72 28.1763 9.955 28.0563 10.255C27.9363 10.555 27.8763 10.9017 27.8763 11.295C27.8763 11.9017 28.0163 12.3883 28.2963 12.755C28.5763 13.1217 28.9879 13.305 29.5313 13.305ZM34.7721 14.15C34.3688 14.15 34.0304 14.0767 33.7571 13.93C33.4871 13.78 33.2821 13.5833 33.1421 13.34C33.0054 13.0967 32.9371 12.83 32.9371 12.54C32.9371 12.2567 32.9904 12.0117 33.0971 11.805C33.2071 11.595 33.3604 11.4217 33.5571 11.285C33.7538 11.145 33.9888 11.035 34.2621 10.955C34.5188 10.885 34.8054 10.825 35.1221 10.775C35.4421 10.7217 35.7654 10.6733 36.0921 10.63C36.4188 10.5867 36.7238 10.545 37.0071 10.505L36.6871 10.69C36.6971 10.21 36.6004 9.855 36.3971 9.625C36.1971 9.395 35.8504 9.28 35.3571 9.28C35.0304 9.28 34.7438 9.355 34.4971 9.505C34.2538 9.65167 34.0821 9.89167 33.9821 10.225L33.1371 9.97C33.2671 9.49667 33.5188 9.125 33.8921 8.855C34.2654 8.585 34.7571 8.45 35.3671 8.45C35.8571 8.45 36.2771 8.53833 36.6271 8.715C36.9804 8.88833 37.2338 9.15167 37.3871 9.505C37.4638 9.67167 37.5121 9.85333 37.5321 10.05C37.5521 10.2433 37.5621 10.4467 37.5621 10.66V14H36.7721V12.705L36.9571 12.825C36.7538 13.2617 36.4688 13.5917 36.1021 13.815C35.7388 14.0383 35.2954 14.15 34.7721 14.15ZM34.9071 13.405C35.2271 13.405 35.5038 13.3483 35.7371 13.235C35.9738 13.1183 36.1638 12.9667 36.3071 12.78C36.4504 12.59 36.5438 12.3833 36.5871 12.16C36.6371 11.9933 36.6638 11.8083 36.6671 11.605C36.6738 11.3983 36.6771 11.24 36.6771 11.13L36.9871 11.265C36.6971 11.305 36.4121 11.3433 36.1321 11.38C35.8521 11.4167 35.5871 11.4567 35.3371 11.5C35.0871 11.54 34.8621 11.5883 34.6621 11.645C34.5154 11.6917 34.3771 11.7517 34.2471 11.825C34.1204 11.8983 34.0171 11.9933 33.9371 12.11C33.8604 12.2233 33.8221 12.365 33.8221 12.535C33.8221 12.6817 33.8588 12.8217 33.9321 12.955C34.0088 13.0883 34.1254 13.1967 34.2821 13.28C34.4421 13.3633 34.6504 13.405 34.9071 13.405ZM40.9821 14.15C40.4788 14.15 40.0471 14.025 39.6871 13.775C39.3271 13.5217 39.0488 13.18 38.8521 12.75C38.6588 12.32 38.5621 11.835 38.5621 11.295C38.5621 10.755 38.6588 10.27 38.8521 9.84C39.0488 9.41 39.3271 9.07167 39.6871 8.825C40.0471 8.575 40.4771 8.45 40.9771 8.45C41.4871 8.45 41.9154 8.57333 42.2621 8.82C42.6088 9.06667 42.8704 9.405 43.0471 9.835C43.2271 10.265 43.3171 10.7517 43.3171 11.295C43.3171 11.8317 43.2271 12.3167 43.0471 12.75C42.8704 13.18 42.6088 13.5217 42.2621 13.775C41.9154 14.025 41.4888 14.15 40.9821 14.15ZM41.0921 13.335C41.4554 13.335 41.7538 13.2483 41.9871 13.075C42.2204 12.8983 42.3921 12.6567 42.5021 12.35C42.6154 12.04 42.6721 11.6883 42.6721 11.295C42.6721 10.895 42.6154 10.5433 42.5021 10.24C42.3921 9.93333 42.2221 9.695 41.9921 9.525C41.7621 9.35167 41.4704 9.265 41.1171 9.265C40.7504 9.265 40.4471 9.355 40.2071 9.535C39.9704 9.715 39.7938 9.95833 39.6771 10.265C39.5638 10.5717 39.5071 10.915 39.5071 11.295C39.5071 11.6783 39.5654 12.025 39.6821 12.335C39.7988 12.6417 39.9738 12.885 40.2071 13.065C40.4438 13.245 40.7388 13.335 41.0921 13.335ZM42.6721 14V10.025H42.5721V6.8H43.4671V14H42.6721Z" fill="#FFFFFE"/>
<path d="M56 4V10.6667M56 4L58.7778 6.77778M56 4L53.2222 6.77778M61 10.6667V12.8889C61 13.1836 60.8829 13.4662 60.6746 13.6746C60.4662 13.8829 60.1836 14 59.8889 14H52.1111C51.8164 14 51.5338 13.8829 51.3254 13.6746C51.1171 13.4662 51 13.1836 51 12.8889V10.6667" stroke="#FFFFFE" stroke-linecap="round" stroke-linejoin="round"/>
</svg>
