<svg width="98" height="95" viewBox="0 0 98 95" fill="none" xmlns="http://www.w3.org/2000/svg">
<rect x="0.5" y="0.5" width="97" height="94" rx="47" stroke="#55555F" stroke-dasharray="4 4"/>
<path d="M36.0938 50.2812L43.1874 42.3278C43.4747 42.0057 43.8157 41.7502 44.1911 41.5759C44.5664 41.4015 44.9687 41.3118 45.375 41.3118C45.7813 41.3118 46.1836 41.4015 46.5589 41.5759C46.9343 41.7502 47.2753 42.0057 47.5626 42.3278L54.6562 50.2812M52.5938 47.9687L54.5311 45.7965C54.8184 45.4744 55.1595 45.2189 55.5348 45.0446C55.9102 44.8703 56.3125 44.7806 56.7188 44.7806C57.125 44.7806 57.5273 44.8703 57.9027 45.0446C58.278 45.2189 58.6191 45.4744 58.9064 45.7965L62.9062 50.2812M38.1562 56.0625H60.8438C61.3908 56.0625 61.9154 55.8189 62.3022 55.3852C62.689 54.9515 62.9062 54.3633 62.9062 53.75V35.25C62.9062 34.6367 62.689 34.0485 62.3022 33.6148C61.9154 33.1811 61.3908 32.9375 60.8438 32.9375H38.1562C37.6092 32.9375 37.0846 33.1811 36.6978 33.6148C36.311 34.0485 36.0938 34.6367 36.0938 35.25V53.75C36.0938 54.3633 36.311 54.9515 36.6978 55.3852C37.0846 55.8189 37.6092 56.0625 38.1562 56.0625ZM52.5938 38.7187H52.6048V38.7311H52.5938V38.7187ZM53.1094 38.7187C53.1094 38.8721 53.0551 39.0191 52.9584 39.1275C52.8617 39.236 52.7305 39.2969 52.5938 39.2969C52.457 39.2969 52.3258 39.236 52.2291 39.1275C52.1324 39.0191 52.0781 38.8721 52.0781 38.7187C52.0781 38.5654 52.1324 38.4184 52.2291 38.31C52.3258 38.2015 52.457 38.1406 52.5938 38.1406C52.7305 38.1406 52.8617 38.2015 52.9584 38.31C53.0551 38.4184 53.1094 38.5654 53.1094 38.7187Z" stroke="#BDBDC1" stroke-width="1.5" stroke-linecap="round" stroke-linejoin="round"/>
</svg>
